<?xml version="1.0" encoding="UTF-8"?>
<svg width="660px" height="160px" viewBox="0 0 660 160" version="1.1" xmlns="http://www.w3.org/2000/svg" xmlns:xlink="http://www.w3.org/1999/xlink">
    <!-- Generator: Sketch 64 (93537) - https://sketch.com -->
    <title>logo</title>
    <desc>Created with Sketch.</desc>
    <g id="logo" stroke="none" stroke-width="1" fill="none" fill-rule="evenodd">
        <g id="Group-2" transform="translate(0.000000, 3.000000)">
            <path d="M62.44,128 C70.3677419,128 77.3870968,126.843871 83.4980645,124.531613 C89.6090323,122.219355 94.8941935,119.136344 99.3535484,115.282581 C103.812903,111.428817 107.556559,107.272258 110.584516,102.812903 C113.612473,98.3535484 116.007312,93.9767742 117.769032,89.6825806 C117.989247,89.0219355 118.099355,88.5815054 118.099355,88.3612903 C118.099355,87.8107527 117.87914,87.3978495 117.43871,87.1225806 C116.99828,86.8473118 116.447742,86.5445161 115.787097,86.2141935 L115.787097,86.2141935 L110.006452,83.5716129 C109.125591,83.1311828 108.409892,82.9109677 107.859355,82.9109677 C106.648172,82.9109677 105.712258,83.6266667 105.051613,85.0580645 C103.289892,89.0219355 100.84,93.0683871 97.7019355,97.1974194 C94.563871,101.326452 90.3797849,104.822366 85.1496774,107.685161 C79.9195699,110.547957 73.2305376,111.979355 65.0825806,111.979355 C56.9346237,111.979355 50.1905376,109.694624 44.8503226,105.125161 C39.5101075,100.555699 35.5737634,94.2245161 33.0412903,86.1316129 C30.5088172,78.0387097 29.2425806,68.652043 29.2425806,57.9716129 C29.2425806,53.3470968 29.7655914,48.4473118 30.8116129,43.2722581 C31.8576344,38.0972043 33.591828,33.1974194 36.0141935,28.5729032 C38.4365591,23.9483871 41.6572043,20.2047312 45.676129,17.3419355 C49.6950538,14.4791398 54.6774194,13.0477419 60.6232258,13.0477419 C66.8993548,13.0477419 71.7991398,14.4516129 75.3225806,17.2593548 C78.8460215,20.0670968 81.3234409,23.507957 82.7548387,27.5819355 C84.1862366,31.655914 84.9019355,35.6748387 84.9019355,39.6387097 C84.9019355,40.1892473 84.8468817,41.1802151 84.7367742,42.6116129 C84.6266667,44.0430108 84.5716129,44.8688172 84.5716129,45.0890323 C84.5716129,46.1901075 85.2322581,46.7406452 86.5535484,46.7406452 C87.4344086,46.7406452 88.4253763,46.5204301 89.5264516,46.08 L89.5264516,46.08 L109.676129,38.9780645 C111.547957,38.3174194 112.483871,37.2163441 112.483871,35.6748387 C112.483871,34.2434409 111.988387,32.0963441 110.997419,29.2335484 C110.006452,26.3707527 108.354839,23.2877419 106.042581,19.9845161 C103.730323,16.6812903 100.647312,13.5156989 96.7935484,10.4877419 C92.9397849,7.45978495 88.1501075,4.95483871 82.4245161,2.97290323 C76.6989247,0.990967742 69.8722581,0 61.9445161,0 C52.4752688,0 44.2722581,1.3488172 37.3354839,4.04645161 C30.3987097,6.74408602 24.5905376,10.3776344 19.9109677,14.9470968 C15.2313978,19.5165591 11.5152688,24.664086 8.76258065,30.3896774 C6.00989247,36.1152688 4.02795699,41.9784946 2.81677419,47.9793548 C1.6055914,53.9802151 1,59.7333333 1,65.2387097 C1,77.0202151 3.36731183,87.6731183 8.10193548,97.1974194 C12.8365591,106.72172 19.7733333,114.236559 28.9122581,119.741935 C38.0511828,125.247312 49.2270968,128 62.44,128 Z M191.926452,128 C192.366882,128 192.807312,127.889892 193.247742,127.669677 C195.780215,126.568602 198.340215,125.550108 200.927742,124.614194 C203.515269,123.67828 206.59828,122.907527 210.176774,122.301935 C213.755269,121.696344 218.242151,121.393548 223.637419,121.393548 C225.178925,121.393548 225.949677,120.622796 225.949677,119.08129 L225.949677,119.08129 L225.949677,113.630968 C225.949677,113.08043 225.867097,112.612473 225.701935,112.227097 C225.536774,111.84172 225.013763,111.593978 224.132903,111.483871 C221.16,111.153548 218.985376,110.024946 217.609032,108.098065 C216.232688,106.171183 215.351828,103.803871 214.966452,100.996129 C214.581075,98.1883871 214.388387,95.3531183 214.388387,92.4903226 L214.388387,92.4903226 L214.388387,45.7496774 C214.388387,44.0980645 213.562581,43.2722581 211.910968,43.2722581 L211.910968,43.2722581 L178.713548,43.2722581 C177.061935,43.2722581 176.236129,44.0980645 176.236129,45.7496774 L176.236129,45.7496774 L176.236129,50.7045161 C176.236129,52.356129 177.061935,53.1819355 178.713548,53.1819355 L178.713548,53.1819355 L179.043871,53.1819355 C183.007742,53.1819355 186.008172,54.6683871 188.045161,57.6412903 C190.082151,60.6141935 191.100645,64.3578495 191.100645,68.8722581 L191.100645,68.8722581 L191.100645,99.4270968 C190.219785,101.739355 188.705806,103.969032 186.55871,106.116129 C184.411613,108.263226 181.96172,110.024946 179.209032,111.40129 C176.456344,112.777634 173.703656,113.465806 170.950968,113.465806 C167.537634,113.465806 164.977634,112.722581 163.270968,111.236129 C161.564301,109.749677 160.435699,107.767742 159.885161,105.290323 C159.334624,102.812903 159.059355,100.087742 159.059355,97.1148387 L159.059355,97.1148387 L159.059355,45.7496774 C159.059355,44.0980645 158.233548,43.2722581 156.581935,43.2722581 L156.581935,43.2722581 L123.054194,43.2722581 C121.402581,43.2722581 120.576774,44.0980645 120.576774,45.7496774 L120.576774,45.7496774 L120.576774,50.7045161 C120.576774,52.356129 121.402581,53.1819355 123.054194,53.1819355 L123.054194,53.1819355 L123.714839,53.1819355 C127.788817,53.1819355 130.844301,54.6683871 132.88129,57.6412903 C134.91828,60.6141935 135.936774,64.3578495 135.936774,68.8722581 L135.936774,68.8722581 L135.936774,96.123871 C135.936774,100.087742 136.294624,103.969032 137.010323,107.767742 C137.726022,111.566452 139.074839,114.979785 141.056774,118.007742 C143.03871,121.035699 145.873978,123.458065 149.562581,125.274839 C153.251183,127.091613 158.068387,128 164.014194,128 C169.07914,128 173.566022,126.871398 177.474839,124.614194 C181.383656,122.356989 184.714409,119.576774 187.467097,116.273548 C190.219785,112.970323 192.366882,109.777204 193.908387,106.694194 C192.917419,114.181505 192.229247,119.43914 191.843871,122.467097 C191.458495,125.495054 191.265806,127.174194 191.265806,127.504516 C191.265806,127.834839 191.375914,128 191.596129,128 L191.596129,128 L191.926452,128 Z M282.6,125.852903 C284.251613,125.852903 285.077419,125.027097 285.077419,123.375484 L285.077419,123.375484 L285.077419,118.420645 C285.077419,116.769032 284.251613,115.943226 282.6,115.943226 L282.6,115.943226 L282.269677,115.943226 C278.195699,115.943226 275.167742,114.429247 273.185806,111.40129 C271.203871,108.373333 270.212903,104.657204 270.212903,100.252903 L270.212903,100.252903 L270.212903,69.8632258 C270.983656,67.7711828 272.194839,65.624086 273.846452,63.4219355 C275.498065,61.2197849 277.424946,59.347957 279.627097,57.8064516 C281.829247,56.2649462 284.196559,55.4941935 286.729032,55.4941935 C288.931183,55.4941935 290.775484,56.1823656 292.261935,57.5587097 C293.748387,58.9350538 294.491613,61.1096774 294.491613,64.0825806 C294.491613,65.1836559 294.409032,66.4498925 294.243871,67.8812903 C294.07871,69.3126882 293.665806,70.7991398 293.005161,72.3406452 C292.784946,73.0012903 292.674839,73.4967742 292.674839,73.8270968 C292.674839,74.8180645 293.170323,75.3135484 294.16129,75.3135484 C294.491613,75.3135484 294.987097,75.2034409 295.647742,74.9832258 L295.647742,74.9832258 L311.172903,68.7070968 C313.154839,67.8262366 314.366022,66.4498925 314.806452,64.5780645 C315.246882,62.7062366 315.467097,60.5591398 315.467097,58.1367742 C315.467097,52.5212903 313.650323,48.2821505 310.016774,45.4193548 C306.383226,42.5565591 301.978925,41.1251613 296.803871,41.1251613 C290.968172,41.1251613 285.407742,42.7767742 280.122581,46.08 C274.837419,49.3832258 270.708387,54.227957 267.735484,60.6141935 C268.065806,58.7423656 268.47871,56.5677419 268.974194,54.0903226 C269.469677,51.6129032 269.910108,49.1905376 270.295484,46.8232258 C270.68086,44.455914 271.011183,42.5015054 271.286452,40.96 C271.56172,39.4184946 271.699355,38.5926882 271.699355,38.4825806 C271.699355,38.2623656 271.589247,38.1522581 271.369032,38.1522581 L271.369032,38.1522581 L271.03871,38.1522581 C270.818495,38.1522581 270.543226,38.2623656 270.212903,38.4825806 C268.12086,40.024086 264.129462,42.116129 258.23871,44.7587097 C252.347957,47.4012903 245.493763,49.328172 237.676129,50.5393548 C236.024516,50.8696774 235.19871,51.5853763 235.19871,52.6864516 L235.19871,52.6864516 L235.19871,58.3019355 C235.19871,59.6232258 235.859355,60.3389247 237.180645,60.4490323 C240.263656,60.7793548 242.465806,61.907957 243.787097,63.8348387 C245.108387,65.7617204 245.96172,68.1015054 246.347097,70.8541935 C246.732473,73.6068817 246.925161,76.4696774 246.925161,79.4425806 L246.925161,79.4425806 L246.925161,100.252903 C246.925161,104.657204 245.934194,108.373333 243.952258,111.40129 C241.970323,114.429247 238.942366,115.943226 234.868387,115.943226 L234.868387,115.943226 L234.538065,115.943226 C232.886452,115.943226 232.060645,116.769032 232.060645,118.420645 L232.060645,118.420645 L232.060645,123.375484 C232.060645,125.027097 232.886452,125.852903 234.538065,125.852903 L234.538065,125.852903 L282.6,125.852903 Z M380.375484,128 C380.705806,128 381.091183,127.889892 381.531613,127.669677 C384.064086,126.568602 386.624086,125.550108 389.211613,124.614194 C391.79914,123.67828 394.882151,122.907527 398.460645,122.301935 C402.03914,121.696344 406.526022,121.393548 411.92129,121.393548 C413.572903,121.393548 414.39871,120.622796 414.39871,119.08129 L414.39871,119.08129 L414.39871,113.630968 C414.39871,112.309677 413.738065,111.593978 412.416774,111.483871 C408.342796,110.933333 405.700215,109.089032 404.489032,105.950968 C403.277849,102.812903 402.672258,99.2619355 402.672258,95.2980645 L402.672258,95.2980645 L402.672258,41.4554839 C402.672258,41.2352688 402.562151,41.1251613 402.341935,41.1251613 L402.341935,41.1251613 L402.176774,41.1251613 C401.956559,41.1251613 401.68129,41.2352688 401.350968,41.4554839 C400.580215,41.895914 399.892043,42.3363441 399.286452,42.7767742 C398.68086,43.2172043 398.102796,43.6576344 397.552258,44.0980645 C396.12086,45.1991398 394.386667,46.2726882 392.349677,47.3187097 C390.312688,48.3647312 387.862796,49.4933333 385,50.7045161 C381.586667,47.6215054 377.622796,45.2541935 373.108387,43.6025806 C368.593978,41.9509677 363.63914,41.1251613 358.243871,41.1251613 C351.637419,41.1251613 345.388817,42.6116129 339.498065,45.5845161 C333.607312,48.5574194 328.817634,53.2094624 325.129032,59.5406452 C321.44043,65.871828 319.596129,74.1574194 319.596129,84.3974194 C319.596129,92.4352688 320.779785,99.2344086 323.147097,104.794839 C325.514409,110.355269 328.569892,114.842151 332.313548,118.255484 C336.057204,121.668817 340.048602,124.146237 344.287742,125.687742 C348.526882,127.229247 352.51828,128 356.261935,128 C361.877419,128 366.419355,127.036559 369.887742,125.109677 C373.356129,123.182796 375.99871,121.008172 377.815484,118.585806 C379.632258,116.163441 380.815914,114.236559 381.366452,112.805161 C381.146237,114.346667 380.898495,116.190968 380.623226,118.338065 C380.347957,120.485161 380.100215,122.412043 379.88,124.11871 C379.659785,125.825376 379.549677,126.898925 379.549677,127.339355 C379.549677,127.779785 379.659785,128 379.88,128 L379.88,128 L380.375484,128 Z M363.694194,113.465806 C356.977634,113.465806 351.499785,110.382796 347.260645,104.216774 C343.021505,98.0507527 340.901935,89.6825806 340.901935,79.1122581 C340.901935,74.4877419 341.48,70.1384946 342.636129,66.0645161 C343.792258,61.9905376 345.856774,58.6597849 348.829677,56.0722581 C351.802581,53.4847312 355.931613,52.1909677 361.216774,52.1909677 C365.510968,52.1909677 368.924301,53.1544086 371.456774,55.0812903 C373.989247,57.008172 375.888602,59.3204301 377.154839,62.0180645 C378.421075,64.7156989 379.219355,67.1655914 379.549677,69.3677419 L379.549677,69.3677419 L379.549677,102.565161 C379.43957,102.895484 378.889032,103.941505 377.898065,105.703226 C376.907097,107.464946 375.283011,109.19914 373.025806,110.905806 C370.768602,112.612473 367.658065,113.465806 363.694194,113.465806 Z M450.073548,128 C454.257634,128 458.44172,127.20172 462.625806,125.605161 C466.809892,124.008602 470.388387,122.274409 473.36129,120.402581 L473.36129,120.402581 L478.316129,117.264516 C479.196989,116.713978 479.637419,116.108387 479.637419,115.447742 C479.637419,114.897204 479.472258,114.40172 479.141935,113.96129 L479.141935,113.96129 L476.499355,109.667097 C475.948817,108.786237 475.343226,108.345806 474.682581,108.345806 C474.242151,108.345806 473.636559,108.566022 472.865806,109.006452 C471.104086,110.107527 469.177204,111.181075 467.085161,112.227097 C464.993118,113.273118 463.011183,113.796129 461.139355,113.796129 C459.157419,113.796129 457.505806,112.997849 456.184516,111.40129 C454.863226,109.804731 454.202581,106.859355 454.202581,102.565161 L454.202581,102.565161 L454.202581,55.3290323 L476.334194,55.3290323 C477.985806,55.3290323 478.811613,54.5032258 478.811613,52.8516129 L478.811613,52.8516129 L478.811613,45.7496774 C478.811613,44.0980645 477.985806,43.2722581 476.334194,43.2722581 L476.334194,43.2722581 L454.202581,43.2722581 L454.202581,15.6903226 C454.202581,15.36 454.092473,15.1948387 453.872258,15.1948387 L453.872258,15.1948387 L453.541935,15.1948387 C453.211613,15.1948387 452.936344,15.3049462 452.716129,15.5251613 C449.633118,18.608172 446.109677,21.3333333 442.145806,23.7006452 C438.181935,26.067957 434.988817,27.9122581 432.566452,29.2335484 C431.575484,29.784086 431.08,30.7750538 431.08,32.2064516 L431.08,32.2064516 L431.08,43.2722581 L419.023226,43.2722581 C417.371613,43.2722581 416.545806,44.0980645 416.545806,45.7496774 L416.545806,45.7496774 L416.545806,50.7045161 C416.545806,52.356129 417.371613,53.1819355 419.023226,53.1819355 C422.987097,53.1819355 425.822366,54.1178495 427.529032,55.9896774 C429.235699,57.8615054 430.254194,60.2563441 430.584516,63.1741935 C430.914839,66.092043 431.08,69.0374194 431.08,72.0103226 L431.08,72.0103226 L431.08,102.565161 C431.08,109.061505 431.96086,114.153978 433.722581,117.842581 C435.484301,121.531183 437.824086,124.146237 440.741935,125.687742 C443.659785,127.229247 446.770323,128 450.073548,128 Z M528.36,128 C535.737204,128 542.563871,126.155699 548.84,122.467097 C555.116129,118.778495 560.181075,113.713548 564.034839,107.272258 C567.888602,100.830968 569.815484,93.5363441 569.815484,85.3883871 C569.815484,79.7729032 568.741935,74.3501075 566.594839,69.12 C564.447742,63.8898925 561.447312,59.1552688 557.593548,54.916129 C553.739785,50.6769892 549.142796,47.3187097 543.802581,44.8412903 C538.462366,42.363871 532.654194,41.1251613 526.378065,41.1251613 C518.780645,41.1251613 511.843871,42.9969892 505.567742,46.7406452 C499.291613,50.4843011 494.28172,55.5492473 490.538065,61.9354839 C486.794409,68.3217204 484.922581,75.5337634 484.922581,83.5716129 C484.922581,89.4073118 485.996129,94.9952688 488.143226,100.335484 C490.290323,105.675699 493.31828,110.410323 497.227097,114.539355 C501.135914,118.668387 505.732903,121.944086 511.018065,124.366452 C516.303226,126.788817 522.083871,128 528.36,128 Z M533.48,114.621935 C529.406022,114.621935 525.607312,113.218065 522.083871,110.410323 C518.56043,107.602581 515.504946,104.024086 512.917419,99.6748387 C510.329892,95.3255914 508.292903,90.7836559 506.806452,86.0490323 C505.32,81.3144086 504.576774,77.0752688 504.576774,73.3316129 C504.576774,67.495914 506.228387,62.8989247 509.531613,59.5406452 C512.834839,56.1823656 516.743656,54.5032258 521.258065,54.5032258 C525.332043,54.5032258 529.103226,55.9070968 532.571613,58.7148387 C536.04,61.5225806 539.067957,65.1010753 541.655484,69.4503226 C544.243011,73.7995699 546.28,78.3139785 547.766452,82.9935484 C549.252903,87.6731183 549.996129,91.9397849 549.996129,95.7935484 C549.996129,100.63828 549.032688,104.436989 547.105806,107.189677 C545.178925,109.942366 542.949247,111.869247 540.416774,112.970323 C537.884301,114.071398 535.572043,114.621935 533.48,114.621935 Z M626.135484,125.852903 C627.787097,125.852903 628.612903,125.027097 628.612903,123.375484 L628.612903,123.375484 L628.612903,118.420645 C628.612903,116.769032 627.787097,115.943226 626.135484,115.943226 L626.135484,115.943226 L625.805161,115.943226 C621.731183,115.943226 618.703226,114.429247 616.72129,111.40129 C614.739355,108.373333 613.748387,104.657204 613.748387,100.252903 L613.748387,100.252903 L613.748387,69.8632258 C614.51914,67.7711828 615.730323,65.624086 617.381935,63.4219355 C619.033548,61.2197849 620.96043,59.347957 623.162581,57.8064516 C625.364731,56.2649462 627.732043,55.4941935 630.264516,55.4941935 C632.466667,55.4941935 634.310968,56.1823656 635.797419,57.5587097 C637.283871,58.9350538 638.027097,61.1096774 638.027097,64.0825806 C638.027097,65.1836559 637.944516,66.4498925 637.779355,67.8812903 C637.614194,69.3126882 637.20129,70.7991398 636.540645,72.3406452 C636.32043,73.0012903 636.210323,73.4967742 636.210323,73.8270968 C636.210323,74.8180645 636.705806,75.3135484 637.696774,75.3135484 C638.027097,75.3135484 638.522581,75.2034409 639.183226,74.9832258 L639.183226,74.9832258 L654.708387,68.7070968 C656.690323,67.8262366 657.901505,66.4498925 658.341935,64.5780645 C658.782366,62.7062366 659.002581,60.5591398 659.002581,58.1367742 C659.002581,52.5212903 657.185806,48.2821505 653.552258,45.4193548 C649.91871,42.5565591 645.514409,41.1251613 640.339355,41.1251613 C634.503656,41.1251613 628.943226,42.7767742 623.658065,46.08 C618.372903,49.3832258 614.243871,54.227957 611.270968,60.6141935 C611.60129,58.7423656 612.014194,56.5677419 612.509677,54.0903226 C613.005161,51.6129032 613.445591,49.1905376 613.830968,46.8232258 C614.216344,44.455914 614.546667,42.5015054 614.821935,40.96 C615.097204,39.4184946 615.234839,38.5926882 615.234839,38.4825806 C615.234839,38.2623656 615.124731,38.1522581 614.904516,38.1522581 L614.904516,38.1522581 L614.574194,38.1522581 C614.353978,38.1522581 614.07871,38.2623656 613.748387,38.4825806 C611.656344,40.024086 607.664946,42.116129 601.774194,44.7587097 C595.883441,47.4012903 589.029247,49.328172 581.211613,50.5393548 C579.56,50.8696774 578.734194,51.5853763 578.734194,52.6864516 L578.734194,52.6864516 L578.734194,58.3019355 C578.734194,59.6232258 579.394839,60.3389247 580.716129,60.4490323 C583.79914,60.7793548 586.00129,61.907957 587.322581,63.8348387 C588.643871,65.7617204 589.497204,68.1015054 589.882581,70.8541935 C590.267957,73.6068817 590.460645,76.4696774 590.460645,79.4425806 L590.460645,79.4425806 L590.460645,100.252903 C590.460645,104.657204 589.469677,108.373333 587.487742,111.40129 C585.505806,114.429247 582.477849,115.943226 578.403871,115.943226 L578.403871,115.943226 L578.073548,115.943226 C576.421935,115.943226 575.596129,116.769032 575.596129,118.420645 L575.596129,118.420645 L575.596129,123.375484 C575.596129,125.027097 576.421935,125.852903 578.073548,125.852903 L578.073548,125.852903 L626.135484,125.852903 Z" id="Curator" fill="#18181B" fill-rule="nonzero"></path>
            <line x1="0.5" y1="152.5" x2="659.5" y2="152.5" id="Line" stroke="#18181B" stroke-width="10" stroke-linecap="round"></line>
        </g>
    </g>
</svg>