<?xml version="1.0" encoding="UTF-8"?>
<svg width="920px" height="200px" viewBox="0 0 920 200" version="1.1" xmlns="http://www.w3.org/2000/svg" xmlns:xlink="http://www.w3.org/1999/xlink">
    <!-- Generator: Sketch 64 (93537) - https://sketch.com -->
    <title>logo</title>
    <desc>Created with Sketch.</desc>
    <g id="logo" stroke="none" stroke-width="1" fill="none" fill-rule="evenodd">
        <g id="Group" transform="translate(246.000000, 36.000000)" fill="#FFFFFF" fill-rule="nonzero">
            <path d="M60.1055116,127.997972 C69.2308424,127.997972 77.2408549,126.598755 84.1355492,123.80032 C91.0302435,121.001885 96.8197589,117.301057 101.504095,112.697834 C106.188432,108.094612 109.808146,103.065541 112.363239,97.6106209 C114.918331,92.155701 116.398663,86.7920343 116.804233,81.519621 L116.804233,81.519621 L82.4929897,81.2762789 C82.0874194,83.9530426 81.3066967,86.3560463 80.1508214,88.4852902 C78.9949462,90.614534 77.5044755,92.4294609 75.6794094,93.9300708 C73.8543432,95.4306808 71.7048209,96.5764167 69.2308424,97.3672787 C66.7568638,98.1581407 63.958429,98.5535717 60.8355381,98.5535717 C55.3603397,98.5535717 50.6760032,97.2658862 46.7825288,94.690515 C42.8890544,92.1151439 39.9182522,88.2622265 37.8701225,83.1317628 C35.8219927,78.0012991 34.7979278,71.6237068 34.7979278,63.9989861 C34.7979278,56.7798356 35.8017142,50.5948892 37.8092869,45.444147 C39.8168597,40.2934047 42.7775225,36.3390948 46.6912755,33.581217 C50.6050284,30.8233393 55.4008967,29.4444004 61.0788802,29.4444004 C64.3234423,29.4444004 67.2232696,29.900667 69.7783622,30.8132 C72.3334548,31.7257331 74.5133949,33.0235579 76.3181825,34.7066745 C78.1229702,36.389791 79.5424661,38.3872245 80.5766702,40.698975 C81.6108744,43.0107254 82.2496475,45.5860965 82.4929897,48.4250883 L82.4929897,48.4250883 L116.804233,48.4250883 C116.155321,40.6786965 114.309976,33.8042807 111.268199,27.8018409 C108.226422,21.7994012 104.211277,16.7399122 99.2227626,12.6233742 C94.2342485,8.50683608 88.4345939,5.37380586 81.8237987,3.22428352 C75.2130036,1.07476117 67.9735746,0 60.1055116,0 C48.9117726,0 38.7725163,2.44356078 29.6877426,7.33068234 C20.6029689,12.2178039 13.3838184,19.4166759 8.03029103,28.9272984 C2.67676368,38.4379208 0,50.1284834 0,63.9989861 C0,77.7883747 2.62606739,89.4485195 7.87820218,98.9794205 C13.130337,108.510321 20.288652,115.729472 29.3531471,120.636872 C38.4176423,125.544272 48.6684305,127.997972 60.1055116,127.997972 Z M165.229321,127.511288 C172.20513,127.511288 178.227848,125.838311 183.297476,122.492356 C188.367104,119.146401 191.915844,114.492483 193.943695,108.5306 L193.943695,108.5306 L194.917064,108.5306 L194.917064,126.294577 L226.794886,126.294577 L226.794886,32.8511906 L193.213669,32.8511906 L193.213669,85.4130955 C193.254226,88.4954294 192.716845,91.1417753 191.601527,93.3521332 C190.486209,95.5624911 188.904485,97.2658862 186.856355,98.4623184 C184.808225,99.6587507 182.384943,100.256967 179.586508,100.256967 C175.368578,100.256967 172.093598,98.9388635 169.761569,96.3026568 C167.42954,93.6664502 166.243247,90.0365964 166.20269,85.4130955 L166.20269,85.4130955 L166.20269,32.8511906 L132.621473,32.8511906 L132.621473,92.4700179 C132.66203,99.2835982 134.03083,105.326595 136.727872,110.599008 C139.424914,115.871422 143.216996,120.008238 148.104117,123.009458 C152.991239,126.010678 158.69964,127.511288 165.229321,127.511288 Z M277.410054,126.294577 L277.410054,77.6261466 C277.410054,74.0571284 278.160359,70.9443767 279.660969,68.2878915 C281.161579,65.6314063 283.219848,63.5629981 285.835776,62.0826666 C288.451704,60.6023352 291.402227,59.8621695 294.687347,59.8621695 C296.431299,59.8621695 298.519985,60.0041191 300.953407,60.2880183 C303.386828,60.5719174 305.434958,60.9977662 307.097796,61.5655646 L307.097796,61.5655646 L307.097796,32.9120261 C305.759414,32.5064559 304.370336,32.1921389 302.930562,31.9690753 C301.490788,31.7460116 300.040874,31.6344798 298.580821,31.6344798 C293.592307,31.6344798 289.242566,33.1553683 285.531598,36.1971452 C281.82063,39.2389221 279.113449,44.0449296 277.410054,50.6151677 L277.410054,50.6151677 L276.436685,50.6151677 L276.436685,32.8511906 L243.828837,32.8511906 L243.828837,126.294577 L277.410054,126.294577 Z M339.705645,127.75463 C343.761347,127.75463 347.482454,127.267946 350.868966,126.294577 C354.255478,125.321208 357.276976,123.759763 359.933461,121.610241 C362.589946,119.460718 364.851,116.642005 366.716624,113.154101 L366.716624,113.154101 L367.44665,113.154101 L367.44665,126.294577 L398.837788,126.294577 L398.837788,62.295591 C398.837788,57.9559893 397.85428,53.9307045 395.887264,50.2197367 C393.920248,46.5087689 391.071117,43.2642068 387.339871,40.4860506 C383.608625,37.7078944 379.086516,35.5380935 373.773546,33.976648 C368.460576,32.4152025 362.458136,31.6344798 355.766227,31.6344798 C346.478668,31.6344798 338.732276,33.0843935 332.527051,35.9842208 C326.321826,38.8840481 321.607072,42.7369655 318.382789,47.542973 C315.158505,52.3489805 313.343578,57.5909761 312.938008,63.2689596 L312.938008,63.2689596 L343.842461,63.2689596 C344.248032,60.3894108 345.454603,58.2500277 347.462176,56.8508103 C349.469749,55.451593 352.075537,54.7519843 355.279542,54.7519843 C358.199648,54.7519843 360.592513,55.4008967 362.458136,56.6987215 C364.323759,57.9965463 365.256571,59.8621695 365.256571,62.295591 L365.256571,62.295591 L365.256571,62.5389332 C365.256571,64.3234423 364.546823,65.7530774 363.127327,66.8278386 C361.707831,67.9025998 359.40622,68.7340188 356.222493,69.3220957 C353.038767,69.9101725 348.830975,70.4069961 343.599119,70.8125663 C338.772833,71.1775796 334.281143,71.9684416 330.124047,73.1851523 C325.966952,74.4018631 322.326959,76.1660937 319.204068,78.4778441 C316.081177,80.7895946 313.647756,83.7603967 311.903804,87.3902505 C310.159852,91.0201042 309.287876,95.3901237 309.287876,100.500309 C309.287876,106.705534 310.5857,111.815719 313.18135,115.830865 C315.777,119.84601 319.356157,122.837091 323.918823,124.804106 C328.481488,126.771122 333.743762,127.75463 339.705645,127.75463 Z M350.656042,106.583863 C347.81705,106.583863 345.485021,105.894393 343.659955,104.515454 C341.834889,103.136516 340.922355,101.149221 340.922355,98.5535717 C340.922355,96.9312907 341.317786,95.4610985 342.108648,94.1429952 C342.89951,92.8248919 344.116221,91.7095737 345.758781,90.7970406 C347.40134,89.8845075 349.520445,89.2254559 352.116094,88.8198856 C353.454476,88.6171005 354.742162,88.3940368 355.979151,88.1506947 C357.21614,87.9073525 358.392294,87.6437319 359.507612,87.3598327 C360.622931,87.0759335 361.677413,86.7717558 362.67106,86.4472996 C363.664707,86.1228434 364.607658,85.7781087 365.499913,85.4130955 L365.499913,85.4130955 L365.499913,93.2000444 C365.499913,96.0390361 364.790165,98.4521791 363.370669,100.439473 C361.951173,102.426768 360.115968,103.947656 357.865053,105.002139 C355.614138,106.056621 353.211134,106.583863 350.656042,106.583863 Z M436.616657,125.229955 C441.848513,127.237528 448.317359,128.038529 456.023194,127.632959 C459.835554,127.430174 463.130812,127.004325 465.908968,126.355413 C468.687125,125.7065 470.826508,125.15898 472.327118,124.712853 L472.327118,124.712853 L467.460275,101.108664 C466.811362,101.270892 465.807576,101.473678 464.448916,101.71702 C463.090255,101.960362 461.903962,102.082033 460.890037,102.082033 C459.429984,102.082033 458.233551,101.869109 457.30074,101.44326 C456.367928,101.017411 455.678459,100.368499 455.232332,99.4965226 C454.786204,98.6245465 454.563141,97.5396461 454.563141,96.2418213 L454.563141,96.2418213 L454.563085,57.1857395 L470.623723,57.1854058 L470.623723,32.8511906 L454.563085,32.8519693 L454.563141,10.4637126 L420.981924,10.4637126 L420.980867,32.8519693 L409.058158,32.8511906 L409.058158,57.1854058 L420.980867,57.1857395 L420.981924,99.4052692 C420.903706,105.701747 422.088836,110.980006 424.537311,115.240046 L424.814563,115.709193 C427.450769,120.048795 431.384801,123.222382 436.616657,125.229955 Z M528.295813,127.997972 C538.435069,127.997972 547.114273,125.98026 554.333423,121.944836 C561.552574,117.909412 567.088608,112.271986 570.941525,105.032557 C574.794442,97.7931275 576.720901,89.387684 576.720901,79.816226 C576.720901,70.244768 574.794442,61.8393245 570.941525,54.5998954 C567.088608,47.3604664 561.552574,41.7230399 554.333423,37.6876158 C547.114273,33.6521918 538.435069,31.6344798 528.295813,31.6344798 C518.156556,31.6344798 509.477353,33.6521918 502.258202,37.6876158 C495.039052,41.7230399 489.503018,47.3604664 485.650101,54.5998954 C481.797183,61.8393245 479.870724,70.244768 479.870724,79.816226 C479.870724,89.387684 481.797183,97.7931275 485.650101,105.032557 C489.503018,112.271986 495.039052,117.909412 502.258202,121.944836 C509.477353,125.98026 518.156556,127.997972 528.295813,127.997972 Z M528.539155,103.177073 C525.537935,103.177073 522.962564,102.223983 520.813042,100.317802 C518.663519,98.4116221 517.02096,95.6943014 515.885363,92.1658402 C514.749766,88.637379 514.181968,84.4397269 514.181968,79.5728838 C514.181968,74.6654838 514.749766,70.4576924 515.885363,66.9495097 C517.02096,63.441327 518.663519,60.7341455 520.813042,58.8279653 C522.962564,56.9217851 525.537935,55.968695 528.539155,55.968695 C531.378147,55.968695 533.831847,56.9217851 535.900255,58.8279653 C537.968663,60.7341455 539.570666,63.441327 540.706263,66.9495097 C541.841859,70.4576924 542.409658,74.6654838 542.409658,79.5728838 C542.409658,84.4397269 541.841859,88.637379 540.706263,92.1658402 C539.570666,95.6943014 537.968663,98.4116221 535.900255,100.317802 C533.831847,102.223983 531.378147,103.177073 528.539155,103.177073 Z M623.929279,126.294577 L623.929279,77.6261466 C623.929279,74.0571284 624.679584,70.9443767 626.180194,68.2878915 C627.680804,65.6314063 629.739073,63.5629981 632.355001,62.0826666 C634.970929,60.6023352 637.921452,59.8621695 641.206572,59.8621695 C642.950524,59.8621695 645.03921,60.0041191 647.472632,60.2880183 C649.906053,60.5719174 651.954183,60.9977662 653.617021,61.5655646 L653.617021,61.5655646 L653.617021,32.9120261 C652.278639,32.5064559 650.889561,32.1921389 649.449787,31.9690753 C648.010013,31.7460116 646.560099,31.6344798 645.100046,31.6344798 C640.111532,31.6344798 635.761791,33.1553683 632.050823,36.1971452 C628.339855,39.2389221 625.632674,44.0449296 623.929279,50.6151677 L623.929279,50.6151677 L622.95591,50.6151677 L622.95591,32.8511906 L590.348062,32.8511906 L590.348062,126.294577 L623.929279,126.294577 Z" id="Curator"></path>
        </g>
        <g id="Group" transform="translate(20.000000, 20.000000)">
            <rect id="Rectangle" fill="#472BE9" x="0" y="0" width="160" height="160" rx="80"></rect>
            <path d="M100,80 L160,80 L160,80 L160,152 C160,156.418278 156.418278,160 152,160 L80,160 L80,160 L80,100 C80,88.954305 88.954305,80 100,80 Z" id="Rectangle" fill="#6366F1" style="mix-blend-mode: screen;"></path>
            <rect id="Rectangle" fill="#472BE9" style="mix-blend-mode: screen;" x="40" y="40" width="80" height="80" rx="20"></rect>
        </g>
    </g>
</svg>
